<?xml version="1.0" encoding="UTF-8"?><svg id="Layer_1" xmlns="http://www.w3.org/2000/svg" viewBox="0 0 100 100"><defs><style>.cls-1{fill:#fff;}</style></defs><path class="cls-1" d="M66.77,21.07H17.92c-4.2,0-7.6,3.4-7.6,7.6v62.97c0,4.2,3.4,7.6,7.6,7.6h48.85c4.2,0,7.6-3.4,7.6-7.6V28.67c0-4.2-3.4-7.6-7.6-7.6Zm1.2,67.72c0,1.94-1.58,3.52-3.53,3.52H20.24c-1.95,0-3.52-1.58-3.52-3.52V31.52c0-1.95,1.58-3.52,3.52-3.52h44.2c1.95,0,3.53,1.58,3.53,3.52v57.27Z"/><path class="cls-1" d="M83.45,.6H28.81c-1.91,0-3.46,1.55-3.46,3.46h0c0,1.91,1.55,3.46,3.46,3.46h52.31c1.95,0,3.53,1.58,3.53,3.53v61.31c0,1.77,1.43,3.2,3.2,3.2h0c1.77,0,3.2-1.43,3.2-3.2V8.2c0-4.2-3.4-7.6-7.6-7.6Z"/></svg>