<?xml version="1.0" encoding="UTF-8"?><svg id="Layer_1" xmlns="http://www.w3.org/2000/svg" viewBox="0 0 30 30"><defs><style>.cls-1{fill:#fff;}</style></defs><circle class="cls-1" cx="15" cy="15" r="14.74"/><g><path d="M4.98,20.42V7.52h-1.63v14.41h5.02l1.02-1.51H4.98Z"/><path d="M19.14,7.52l-6.71,9.92-.78,1.16-2.25,3.33h.93l2.25-3.33,.29-.43,7.2-10.64h-.93Z"/><path d="M27.26,10.63c-.59-.63-1.7-.94-3.32-.94h-4.4l-.93,1.37h5.36c1.15,0,1.87,.19,2.18,.56,.3,.37,.46,1.25,.46,2.65,0,1.19-.23,1.95-.68,2.28-.45,.33-1.49,.49-3.1,.49h-3.85v-4.11h-1.62v11.16h1.62v-5.68h4.79c1.7-.01,2.85-.31,3.47-.91,.62-.6,.92-1.72,.92-3.37s-.3-2.89-.89-3.52Z"/></g></svg>