<?xml version="1.0" encoding="UTF-8"?><svg id="Layer_1" xmlns="http://www.w3.org/2000/svg" viewBox="0 0 108.75 71.66"><path d="M9.83,54.68V1.74H3.15V60.87H23.77l4.18-6.19H9.83Z"/><path d="M67.96,1.74l-27.55,40.71-3.21,4.76-9.24,13.66h3.83l9.23-13.66,1.2-1.77L71.76,1.74h-3.8Z"/><path d="M101.28,14.48c-2.43-2.57-6.98-3.85-13.64-3.85h-18.08l-3.81,5.64h19.42l2.56,.03c4.7,0,7.68,.76,8.94,2.28,1.25,1.52,1.89,5.13,1.89,10.86,0,4.88-.94,7.99-2.8,9.36-1.86,1.35-6.1,2.02-12.72,2.02h-15.82V23.92h-6.67v45.82h6.67v-23.3h17.08l2.59-.04c6.96,0,11.71-1.22,14.24-3.67,2.53-2.46,3.79-7.07,3.79-13.82s-1.22-11.86-3.65-14.43Z"/></svg>