<?xml version="1.0" encoding="UTF-8"?><svg id="Layer_1" xmlns="http://www.w3.org/2000/svg" viewBox="0 0 100 100"><path d="M92.77,96.69H7.23c-2.96,0-5.36-2.4-5.36-5.36V8.67c0-2.96,2.4-5.36,5.36-5.36H41.32c2.96,0,5.36,2.4,5.36,5.36s-2.4,5.36-5.36,5.36H12.59V85.97H87.41v-25.86c0-2.96,2.4-5.36,5.36-5.36s5.36,2.4,5.36,5.36v31.22c0,2.96-2.4,5.36-5.36,5.36Z"/><path d="M58.88,4V13.54h21.75L35.68,58.5c-1.86,1.86-1.86,4.89,0,6.75,.93,.93,2.15,1.4,3.37,1.4s2.44-.47,3.37-1.4L88.09,19.58v24.21h9.55V4H58.88Z"/></svg>